<svg width="631" height="270" xmlns="http://www.w3.org/2000/svg" xmlns:xlink="http://www.w3.org/1999/xlink">
 <!-- Created with SVG-edit - http://svg-edit.googlecode.com/ -->
 <defs>
  <svg viewBox="0 0 172.977 104" height="104px" width="172.977px" y="0px" x="0px" id="svg_1" xmlns:xlink="http://www.w3.org/1999/xlink">
   <g>
    <path d="m95.274002,45.102001v-4.209l-1.248001,2.171997h-1.382004l-1.246994,-2.171997v4.209h-2.160004v-8.789001h2.123001l1.975998,3.876999l1.975998,-3.876999h2.123001v8.789001h-2.160995l0,0z" fill="#C8152F"/>
    <path d="m94.417,52.832001v6.862999h-2.159996v-6.862999h-2.161003v-1.926003h6.481003v1.926003h-2.160004l0,0z" fill="#C8152F"/>
    <path d="m95.817001,73.427002c-0.653999,0.666 -1.444,1.012001 -2.494003,1.012001c-1.023994,0 -1.801994,-0.346001 -2.443001,-0.986c-0.925995,-0.926003 -0.889,-2.162003 -0.889,-3.482002s-0.036995,-2.555 0.889,-3.480003c0.642006,-0.642998 1.383003,-0.987999 2.443001,-0.987999c1.260002,0 1.926003,0.297005 2.717003,1.085999l-1.470001,1.471001c-0.418999,-0.419998 -0.691002,-0.630997 -1.247002,-0.630997c-0.394997,0 -0.690994,0.173996 -0.851997,0.382996c-0.196999,0.260002 -0.32,0.557007 -0.32,2.160004c0,1.605003 0.123001,1.914001 0.32,2.174004c0.159996,0.209 0.457001,0.368996 0.851997,0.368996c0.457001,0 0.691002,-0.135002 0.889,-0.346001c0.234001,-0.234001 0.320999,-0.666 0.320999,-0.962997v-0.098h-1.209999v-1.803001h3.357002v1.185997c0.000999,1.419006 -0.196999,2.257004 -0.862999,2.936005z" fill="#C8152F"/>
    <path d="m103.355003,45.105v-0.68c-0.214005,0.246002 -0.466003,0.434002 -0.757004,0.562c-0.291,0.126999 -0.609001,0.191002 -0.955002,0.191002c-0.664001,0 -1.185997,-0.189003 -1.561996,-0.568001c-0.214005,-0.215 -0.369003,-0.463001 -0.469002,-0.748001c-0.098,-0.283001 -0.145996,-0.602001 -0.145996,-0.957001v-3.876999h0.889v3.742001c0,0.542999 0.130997,0.949001 0.393997,1.216999s0.623001,0.400002 1.082001,0.400002c0.459999,0 0.825996,-0.137001 1.100998,-0.408001c0.275002,-0.271 0.412003,-0.674 0.412003,-1.209v-3.742001h0.902v6.076h-0.890999l0,0.000999z" fill="#C8152F"/>
    <path d="m110.392998,44.111c-0.119995,0.227001 -0.287994,0.419998 -0.506996,0.580002c-0.218002,0.16 -0.478004,0.280998 -0.777,0.362999c-0.301003,0.084 -0.637001,0.125 -1.007004,0.125c-0.518997,0 -0.978996,-0.066002 -1.383995,-0.197002c-0.402,-0.132999 -0.773003,-0.358997 -1.111,-0.68l0.593994,-0.593998c0.238007,0.256001 0.518005,0.438 0.840004,0.542999c0.32,0.107002 0.669998,0.161999 1.048996,0.161999c0.502007,0 0.897003,-0.089996 1.186005,-0.265999c0.289001,-0.177998 0.432999,-0.446999 0.432999,-0.808998c0,-0.264 -0.081001,-0.471001 -0.240997,-0.618999s-0.417999,-0.238003 -0.771004,-0.271l-1,-0.086002c-0.594002,-0.049 -1.043999,-0.207001 -1.352997,-0.474998c-0.310005,-0.268002 -0.464005,-0.652 -0.464005,-1.156002c0,-0.278999 0.056999,-0.527 0.167,-0.745998c0.111,-0.219002 0.266006,-0.403999 0.464005,-0.556999c0.196999,-0.152 0.433998,-0.27 0.709,-0.352001c0.276001,-0.082001 0.573997,-0.123001 0.895996,-0.123001c0.436005,0 0.842003,0.053001 1.216003,0.16s0.697998,0.271 0.970001,0.493999l-0.580002,0.580002c-0.214996,-0.164001 -0.459,-0.285 -0.735001,-0.362999s-0.57,-0.117001 -0.883003,-0.117001c-0.443993,0 -0.781998,0.087997 -1.012993,0.264c-0.230003,0.177998 -0.346001,0.424 -0.346001,0.736c0,0.264 0.079994,0.468998 0.239998,0.617001c0.161003,0.147999 0.434998,0.237999 0.821999,0.271l0.974998,0.085999c0.264,0.025002 0.507004,0.07 0.729004,0.137001c0.223,0.065998 0.411995,0.163998 0.568001,0.297001c0.155998,0.130997 0.278,0.294998 0.364998,0.491997c0.085999,0.199001 0.128998,0.438 0.128998,0.717003c-0.001999,0.299 -0.060997,0.560997 -0.18,0.786999z" fill="#C8152F"/>
    <path d="m111.933998,37.299v-1h1.000999v1h-1.000999l0,0zm0.049004,7.806v-6.076h0.889v6.076h-0.889l0,0z" fill="#C8152F"/>
    <path d="m118.217003,44.981998c-0.300003,0.131001 -0.661003,0.197002 -1.081001,0.197002c-0.387001,0 -0.742004,-0.063999 -1.068001,-0.191002c-0.323997,-0.128998 -0.609001,-0.321999 -0.851997,-0.582001c-0.242004,-0.257999 -0.432007,-0.584 -0.568001,-0.974998c-0.135002,-0.390999 -0.203003,-0.846001 -0.203003,-1.364998c0,-0.518002 0.068001,-0.971001 0.203003,-1.357002c0.137001,-0.387001 0.325996,-0.710999 0.568001,-0.971001c0.241997,-0.257999 0.526993,-0.454998 0.851997,-0.585999c0.325996,-0.131001 0.681999,-0.196999 1.068001,-0.196999c0.419998,0 0.780998,0.065998 1.081001,0.196999c0.300995,0.131001 0.606995,0.367001 0.920998,0.702999l-0.605003,0.568001c-0.229996,-0.254002 -0.448997,-0.431999 -0.653999,-0.531002c-0.207001,-0.098 -0.452995,-0.147999 -0.741997,-0.147999c-0.295998,0 -0.563004,0.059002 -0.803001,0.174c-0.237999,0.115002 -0.439003,0.289001 -0.603996,0.52c-0.140007,0.196999 -0.241005,0.422001 -0.303001,0.672001c-0.062004,0.251999 -0.093002,0.57 -0.093002,0.957001s0.030998,0.706997 0.093002,0.956997c0.061996,0.252003 0.162994,0.477001 0.303001,0.674004c0.164993,0.23 0.365997,0.401997 0.603996,0.517998c0.238998,0.117001 0.507004,0.174 0.803001,0.174c0.289001,0 0.534996,-0.050999 0.741997,-0.153999c0.205002,-0.104 0.424004,-0.280998 0.653999,-0.536999l0.605003,0.579998c-0.314003,0.336002 -0.620003,0.570999 -0.920998,0.702999z" fill="#C8152F"/>
    <path d="m98.132004,56.886002c0,0.663998 0.151993,1.177998 0.456993,1.540997c0.305,0.365002 0.749001,0.547001 1.334,0.547001c0.354004,0 0.648003,-0.055 0.883003,-0.166s0.471001,-0.286999 0.709999,-0.524998l0.604004,0.530998c-0.156006,0.156002 -0.311005,0.295002 -0.463005,0.412003s-0.313995,0.215 -0.487,0.294998c-0.172997,0.077999 -0.363998,0.139 -0.574997,0.181999c-0.209,0.041 -0.441002,0.062 -0.696999,0.062c-0.403,0 -0.768005,-0.062 -1.093002,-0.186001s-0.602997,-0.312 -0.833,-0.567997c-0.231003,-0.256001 -0.410004,-0.578003 -0.538002,-0.969002c-0.127998,-0.393002 -0.191002,-0.855 -0.191002,-1.390999c0,-0.989002 0.223007,-1.754002 0.667007,-2.297001c0.445,-0.542999 1.053993,-0.813999 1.827995,-0.813999c0.790001,0 1.403,0.264 1.840004,0.788998c0.436996,0.527 0.653999,1.244003 0.653999,2.151001v0.406002h-4.099998l0,0zm3.184998,-0.987003c-0.008003,-0.091999 -0.017998,-0.174 -0.029999,-0.247997s-0.028,-0.146 -0.050003,-0.217003c-0.020996,-0.067997 -0.046997,-0.144997 -0.080002,-0.228996c-0.114998,-0.279003 -0.300995,-0.502003 -0.556,-0.666s-0.543999,-0.246002 -0.863998,-0.246002c-0.320999,0 -0.609001,0.082001 -0.864998,0.246002c-0.255005,0.163998 -0.439003,0.386997 -0.555,0.666c-0.066002,0.165997 -0.111,0.313999 -0.137001,0.445c-0.024002,0.132999 -0.041,0.32 -0.049004,0.569h3.211006c-0.007004,-0.122002 -0.016006,-0.230003 -0.025002,-0.320004z" fill="#C8152F"/>
    <path d="m107.313004,59.568001c-0.300003,0.131001 -0.660004,0.196999 -1.080002,0.196999c-0.387001,0 -0.743004,-0.063999 -1.068001,-0.190998c-0.325005,-0.129002 -0.609001,-0.322002 -0.851997,-0.582001c-0.243004,-0.257999 -0.433006,-0.584 -0.568001,-0.975002s-0.204002,-0.845997 -0.204002,-1.364998c0,-0.518002 0.068001,-0.971001 0.204002,-1.358002s0.324997,-0.710999 0.568001,-0.970997c0.241997,-0.258003 0.525993,-0.455002 0.851997,-0.586002s0.681999,-0.196999 1.068001,-0.196999c0.419998,0 0.779999,0.065998 1.080002,0.196999c0.300995,0.131001 0.606995,0.367001 0.920998,0.702999l-0.605003,0.568001c-0.229996,-0.253998 -0.447998,-0.431999 -0.653999,-0.530998c-0.206001,-0.098 -0.452995,-0.148003 -0.740997,-0.148003c-0.297005,0 -0.564003,0.059002 -0.803001,0.174s-0.440002,0.289001 -0.605003,0.52c-0.139999,0.197002 -0.239998,0.422001 -0.302994,0.672001c-0.061005,0.251999 -0.092003,0.570999 -0.092003,0.958s0.030998,0.707001 0.092003,0.957001c0.061996,0.251999 0.162994,0.477001 0.302994,0.674c0.165001,0.23 0.367004,0.402 0.605003,0.517998c0.237999,0.117001 0.505997,0.174004 0.803001,0.174004c0.288002,0 0.534996,-0.051003 0.740997,-0.154003s0.424004,-0.280998 0.653999,-0.536999l0.605003,0.580002c-0.313004,0.335999 -0.620003,0.57 -0.920998,0.702999z" fill="#C8152F"/>
    <path d="m113.511002,59.691002v-3.756001c0,-0.533001 -0.131004,-0.936001 -0.395004,-1.203003s-0.625999,-0.401997 -1.087997,-0.401997c-0.460999,0 -0.829002,0.136997 -1.103996,0.407997c-0.276001,0.271 -0.414001,0.672001 -0.414001,1.197002v3.756001h-0.889999v-8.793003h0.889999v3.382999c0.436996,-0.493999 1.004997,-0.739998 1.703995,-0.739998c0.691002,0 1.229004,0.201 1.612,0.605c0.383003,0.402 0.574005,0.951 0.574005,1.643002v3.903h-0.889l0,-0.000999z" fill="#C8152F"/>
    <path d="m120.124001,59.691002v-3.743c0,-0.543003 -0.134003,-0.949001 -0.400002,-1.217003c-0.268997,-0.267998 -0.632996,-0.402 -1.094002,-0.402s-0.826996,0.137001 -1.099998,0.408001c-0.270996,0.271 -0.406998,0.675999 -0.406998,1.211002v3.743h-0.889999v-6.077003h0.889999v0.666c0.213997,-0.245998 0.465996,-0.431999 0.752998,-0.555c0.289001,-0.125 0.605003,-0.185997 0.951004,-0.185997c0.658997,0 1.177994,0.188999 1.556999,0.567997c0.419998,0.412003 0.629997,0.975002 0.629997,1.691002v3.890999h-0.889999l0,0.002003z" fill="#C8152F"/>
    <path d="m127.380997,57.98c-0.094994,0.416 -0.293999,0.778999 -0.598999,1.094002c-0.214996,0.212997 -0.465996,0.382999 -0.753998,0.506001s-0.616997,0.185997 -0.987999,0.185997c-0.370003,0 -0.698997,-0.062 -0.987999,-0.185997c-0.287003,-0.123001 -0.539001,-0.293003 -0.752998,-0.506001c-0.156006,-0.156002 -0.282005,-0.328003 -0.376007,-0.514c-0.095993,-0.186001 -0.169998,-0.379002 -0.223,-0.580002c-0.053993,-0.201 -0.090996,-0.413998 -0.111,-0.637001c-0.020996,-0.220997 -0.030998,-0.451 -0.030998,-0.690998c0,-0.23 0.011002,-0.459 0.030998,-0.686001c0.021004,-0.227001 0.058006,-0.438999 0.111,-0.642998c0.053001,-0.201 0.127007,-0.395 0.223,-0.580002c0.094002,-0.186001 0.220001,-0.355 0.376007,-0.512001c0.213997,-0.215 0.465996,-0.382999 0.752998,-0.506001c0.289001,-0.125 0.617996,-0.185997 0.987999,-0.185997c0.371002,0 0.699997,0.060997 0.987999,0.185997c0.288002,0.123001 0.539001,0.291 0.753998,0.506001c0.305,0.312 0.504005,0.678001 0.598999,1.092003c0.095001,0.415997 0.142006,0.859997 0.142006,1.328999c-0.000999,0.471001 -0.047005,0.911999 -0.142006,1.327999zm-0.759995,-1.846001c-0.009003,-0.174 -0.028,-0.341999 -0.062004,-0.507999c-0.032997,-0.163998 -0.082001,-0.318001 -0.147995,-0.463001c-0.066002,-0.142998 -0.152,-0.272999 -0.260002,-0.389c-0.295998,-0.296997 -0.666,-0.445 -1.111,-0.445c-0.436005,0 -0.803001,0.148003 -1.098999,0.445c-0.116005,0.115002 -0.204002,0.246002 -0.265999,0.389c-0.062004,0.145 -0.111,0.299004 -0.148003,0.463001c-0.037003,0.166 -0.059998,0.334 -0.067001,0.507999c-0.009003,0.172001 -0.013,0.346001 -0.013,0.518002c0,0.174 0.003998,0.346001 0.013,0.52c0.008003,0.172001 0.029999,0.341999 0.067001,0.506001s0.086998,0.32 0.148003,0.468998s0.148994,0.277 0.265999,0.382999c0.295998,0.297001 0.662994,0.445 1.098999,0.445c0.445,0 0.815002,-0.147999 1.111,-0.445c0.107002,-0.105 0.193001,-0.233997 0.260002,-0.382999s0.114998,-0.305 0.147995,-0.468998s0.053001,-0.334 0.062004,-0.506001c0.008995,-0.174 0.013,-0.346001 0.013,-0.52c0,-0.172001 -0.004005,-0.346001 -0.013,-0.518002z" fill="#C8152F"/>
    <path d="m130.630005,59.691002c-0.535004,0 -0.92601,-0.154003 -1.173004,-0.463001s-0.369995,-0.693001 -0.369995,-1.156002v-7.174h0.888992v7.137001c0,0.297001 0.057999,0.52 0.173004,0.667999s0.328995,0.223 0.641998,0.223h0.481995v0.766003h-0.64299l0,-0.000999z" fill="#C8152F"/>
    <path d="m137.007004,57.98c-0.096008,0.416 -0.294998,0.778999 -0.600006,1.094002c-0.214996,0.212997 -0.464996,0.382999 -0.753998,0.506001c-0.287003,0.122997 -0.617004,0.185997 -0.987,0.185997s-0.699997,-0.062 -0.988007,-0.185997s-0.538986,-0.293003 -0.752991,-0.506001c-0.156006,-0.156002 -0.281998,-0.328003 -0.376999,-0.514s-0.169006,-0.379002 -0.223007,-0.580002c-0.052994,-0.201 -0.089996,-0.413998 -0.110992,-0.637001c-0.020004,-0.220997 -0.029999,-0.451 -0.029999,-0.690998c0,-0.23 0.011002,-0.459 0.029999,-0.686001c0.020996,-0.227001 0.05899,-0.438999 0.110992,-0.642998c0.054001,-0.201 0.128006,-0.395 0.223007,-0.580002s0.220993,-0.355 0.376999,-0.512001c0.214005,-0.215 0.464996,-0.382999 0.752991,-0.506001c0.28801,-0.125 0.618011,-0.185997 0.988007,-0.185997s0.699997,0.060997 0.987,0.185997c0.289001,0.123001 0.539001,0.291 0.753998,0.506001c0.305008,0.312 0.503998,0.678001 0.600006,1.092003c0.093994,0.415997 0.140991,0.859997 0.140991,1.328999c-0.000992,0.471001 -0.046997,0.911999 -0.140991,1.327999zm-0.76001,-1.846001c-0.009003,-0.174 -0.029007,-0.341999 -0.061996,-0.507999c-0.033005,-0.163998 -0.082001,-0.318001 -0.14801,-0.463001c-0.065002,-0.142998 -0.151993,-0.272999 -0.259003,-0.389c-0.29599,-0.296997 -0.666992,-0.445 -1.110992,-0.445c-0.436996,0 -0.803009,0.148003 -1.098999,0.445c-0.115997,0.115002 -0.205002,0.246002 -0.266006,0.389c-0.061996,0.145 -0.110992,0.299004 -0.147995,0.463001c-0.037003,0.166 -0.061005,0.334 -0.068008,0.507999c-0.007996,0.172001 -0.011993,0.346001 -0.011993,0.518002c0,0.174 0.003998,0.346001 0.011993,0.52c0.008011,0.172001 0.031006,0.341999 0.068008,0.506001s0.085999,0.32 0.147995,0.468998c0.061005,0.147999 0.149002,0.277 0.266006,0.382999c0.29599,0.297001 0.662003,0.445 1.098999,0.445c0.444,0 0.815002,-0.147999 1.110992,-0.445c0.106003,-0.105 0.193008,-0.233997 0.259003,-0.382999c0.06601,-0.147999 0.115005,-0.305 0.14801,-0.468998s0.053986,-0.334 0.061996,-0.506001c0.007996,-0.174 0.011993,-0.346001 0.011993,-0.52c0.000015,-0.172001 -0.003983,-0.346001 -0.011993,-0.518002z" fill="#C8152F"/>
    <path d="m143.113007,60.918999c-0.115997,0.316002 -0.279999,0.59 -0.494003,0.82s-0.478989,0.412003 -0.796997,0.545002c-0.317001,0.131001 -0.672989,0.196999 -1.067001,0.196999c-0.230988,0 -0.437988,-0.015999 -0.617996,-0.044998s-0.352997,-0.076 -0.513,-0.145c-0.160004,-0.066002 -0.315994,-0.152 -0.468994,-0.256001c-0.152008,-0.105 -0.307007,-0.231998 -0.462997,-0.382999l0.579987,-0.568001c0.106003,0.099998 0.211014,0.186001 0.314011,0.260002s0.209991,0.139 0.320999,0.190998s0.231995,0.091999 0.363998,0.117001s0.283997,0.036999 0.457001,0.036999c0.296997,0 0.550003,-0.049 0.759995,-0.146s0.383011,-0.229 0.518997,-0.392998c0.136002,-0.162003 0.234009,-0.357002 0.296005,-0.580002c0.061996,-0.224998 0.093994,-0.468998 0.093994,-0.729v-0.940998c-0.247986,0.308998 -0.511993,0.515999 -0.791,0.620998c-0.279999,0.104 -0.584991,0.156002 -0.913986,0.156002c-0.312012,0 -0.595001,-0.049004 -0.846008,-0.146004c-0.251999,-0.099998 -0.459,-0.23 -0.623993,-0.396c-0.305008,-0.304996 -0.505005,-0.679996 -0.598999,-1.122997c-0.095001,-0.445 -0.143005,-0.914001 -0.143005,-1.408001s0.048004,-0.963001 0.143005,-1.409c0.093994,-0.445 0.293991,-0.818001 0.598999,-1.123001c0.164993,-0.166 0.373993,-0.294998 0.62999,-0.389c0.256012,-0.095997 0.539001,-0.142998 0.852005,-0.142998c0.337997,0 0.645004,0.050999 0.921005,0.153999c0.274994,0.104 0.536987,0.313999 0.783997,0.634998v-0.715h0.876999v6.262001c-0.000015,0.376999 -0.058014,0.727001 -0.173004,1.042999zm-0.766006,-5.146999c-0.031998,-0.274998 -0.102997,-0.52 -0.209,-0.73c-0.106995,-0.210999 -0.259995,-0.381001 -0.457001,-0.514s-0.460999,-0.199001 -0.791,-0.199001c-0.328995,0 -0.595001,0.066002 -0.796997,0.199001c-0.201004,0.132999 -0.354996,0.303001 -0.462997,0.514c-0.106003,0.210999 -0.177002,0.455002 -0.209,0.73c-0.033005,0.277 -0.050003,0.555 -0.050003,0.836002c0,0.288998 0.016998,0.57 0.050003,0.841999c0.031998,0.272999 0.102997,0.514 0.209,0.724998c0.106995,0.211002 0.261993,0.382999 0.462997,0.514c0.201996,0.132999 0.468002,0.199001 0.796997,0.199001c0.330002,0 0.593994,-0.066002 0.791,-0.199001c0.197006,-0.131001 0.350006,-0.302998 0.457001,-0.514c0.106003,-0.210999 0.177002,-0.451 0.209,-0.724998c0.033005,-0.271 0.050995,-0.553001 0.050995,-0.841999c-0.000992,-0.280003 -0.01799,-0.558002 -0.050995,-0.836002z" fill="#C8152F"/>
    <path d="m146.925995,61.16c-0.115005,0.321999 -0.26001,0.561001 -0.432007,0.716999c-0.166,0.156002 -0.349991,0.266003 -0.556992,0.328003c-0.205002,0.060997 -0.416,0.091999 -0.629013,0.091999h-0.382996v-0.791h0.270996c0.305008,0 0.52301,-0.055 0.654007,-0.166s0.246002,-0.306999 0.345993,-0.585999l0.432007,-1.186001l-2.186005,-5.954002h0.962997l1.667999,4.877003l1.654007,-4.877003h0.964996l-2.765991,7.546001z" fill="#C8152F"/>
    <path d="m102.057999,69.375c-0.165001,-0.164001 -0.320999,-0.278999 -0.469002,-0.346001c-0.147995,-0.066002 -0.341995,-0.099998 -0.580994,-0.099998c-0.222,0 -0.425003,0.042999 -0.604004,0.125c-0.181999,0.082001 -0.334,0.196999 -0.457001,0.346001c-0.124001,0.147995 -0.221001,0.32 -0.291,0.517998c-0.07,0.198997 -0.104996,0.412003 -0.104996,0.642998v3.730003h-0.889v-6.076004h0.889v0.740005c0.166,-0.254005 0.402,-0.455002 0.710999,-0.599998c0.308998,-0.143005 0.640999,-0.215004 0.993996,-0.215004c0.288002,0 0.549004,0.041 0.784004,0.123001c0.234001,0.082001 0.459,0.229996 0.672997,0.445l-0.654999,0.667z" fill="#C8152F"/>
    <path d="m108.068001,72.580002c-0.095001,0.416 -0.294998,0.778999 -0.599998,1.094002c-0.214005,0.212997 -0.465004,0.382996 -0.753006,0.505997s-0.617996,0.185997 -0.987,0.185997c-0.370995,0 -0.700996,-0.061996 -0.987999,-0.185997c-0.289001,-0.123001 -0.539001,-0.292999 -0.753998,-0.505997c-0.155998,-0.156006 -0.280998,-0.328003 -0.376999,-0.514c-0.094002,-0.186005 -0.167999,-0.379005 -0.222,-0.580002s-0.091003,-0.414001 -0.111,-0.637001c-0.021004,-0.221001 -0.029999,-0.451004 -0.029999,-0.691002c0,-0.229996 0.009995,-0.459 0.029999,-0.685997s0.057999,-0.439003 0.111,-0.643005c0.054001,-0.200996 0.127998,-0.394997 0.222,-0.579994c0.096001,-0.186005 0.221001,-0.355003 0.376999,-0.512001c0.214996,-0.215004 0.464996,-0.383003 0.753998,-0.506004c0.287003,-0.125 0.617004,-0.185997 0.987999,-0.185997c0.369003,0 0.699005,0.060997 0.987,0.185997c0.288002,0.123001 0.539001,0.291 0.753006,0.506004c0.305,0.311996 0.504997,0.678001 0.599998,1.091995c0.094002,0.416 0.141998,0.859001 0.141998,1.328003c0,0.471001 -0.047997,0.913002 -0.141998,1.329002zm-0.759003,-1.846001c-0.007996,-0.174004 -0.028999,-0.342003 -0.061996,-0.508003c-0.033005,-0.164001 -0.083,-0.318001 -0.148003,-0.462997c-0.065002,-0.142998 -0.152,-0.273003 -0.259003,-0.389c-0.296997,-0.296997 -0.667999,-0.445 -1.111,-0.445c-0.437996,0 -0.802994,0.148003 -1.099998,0.445c-0.114998,0.114998 -0.203995,0.246002 -0.265999,0.389c-0.061996,0.144997 -0.111,0.298996 -0.148003,0.462997c-0.036995,0.166 -0.059998,0.334 -0.067993,0.508003c-0.008003,0.171997 -0.012001,0.346001 -0.012001,0.517998c0,0.174004 0.003998,0.346001 0.012001,0.520004c0.008995,0.171997 0.030998,0.341995 0.067993,0.505997s0.086006,0.32 0.148003,0.469002c0.062004,0.147995 0.150002,0.277 0.265999,0.382996c0.297005,0.297005 0.662003,0.445 1.099998,0.445c0.443001,0 0.814003,-0.147995 1.111,-0.445c0.106003,-0.104996 0.193001,-0.233994 0.259003,-0.382996s0.114998,-0.305 0.148003,-0.469002c0.031998,-0.164001 0.054001,-0.334 0.061996,-0.505997c0.008003,-0.174004 0.012001,-0.346001 0.012001,-0.520004c-0.000999,-0.171997 -0.004997,-0.346001 -0.012001,-0.517998z" fill="#C8152F"/>
    <path d="m113.626999,74.291v-0.68c-0.213997,0.246002 -0.466995,0.433998 -0.757996,0.561996c-0.291,0.127007 -0.609001,0.191002 -0.954002,0.191002c-0.665001,0 -1.186005,-0.188995 -1.563004,-0.568001c-0.212997,-0.214996 -0.368996,-0.462997 -0.467995,-0.748001c-0.098999,-0.282997 -0.147003,-0.601997 -0.147003,-0.956993v-3.877007h0.889v3.742004c0,0.542999 0.131004,0.948997 0.395004,1.216995c0.261993,0.268005 0.622993,0.400002 1.081993,0.400002s0.826004,-0.137001 1.101006,-0.407997s0.411995,-0.674004 0.411995,-1.209v-3.742004h0.901001v6.076004h-0.889999l0,0.000999z" fill="#C8152F"/>
    <path d="m121.188004,71.968002c-0.021004,0.237999 -0.058006,0.471001 -0.111,0.696999s-0.128006,0.438995 -0.222,0.637001c-0.096001,0.196999 -0.221001,0.375 -0.377007,0.530998c-0.164993,0.164001 -0.375,0.294998 -0.630997,0.389c-0.254997,0.094002 -0.539001,0.142998 -0.851997,0.142998c-0.338005,0 -0.646004,-0.055 -0.926003,-0.161995c-0.279999,-0.105003 -0.543999,-0.316002 -0.791,-0.629005v3.434006h-0.889v-8.793007h0.889v0.715004c0.247002,-0.32 0.511002,-0.530998 0.791,-0.635002c0.278999,-0.103996 0.587997,-0.153999 0.926003,-0.153999c0.311996,0 0.597,0.047005 0.851997,0.142998c0.255997,0.094002 0.466003,0.223007 0.630997,0.389c0.156006,0.156006 0.281006,0.332001 0.377007,0.531006c0.093994,0.196999 0.167999,0.407997 0.222,0.634995s0.090996,0.459 0.111,0.697006c0.020996,0.239998 0.029999,0.478996 0.029999,0.716995c0.000999,0.238998 -0.009003,0.477005 -0.029999,0.715004zm-0.907005,-1.580002c-0.032997,-0.280998 -0.103996,-0.527 -0.210999,-0.741997c-0.107002,-0.213005 -0.262001,-0.387001 -0.462997,-0.518005c-0.201004,-0.132996 -0.467003,-0.198997 -0.797005,-0.198997c-0.328995,0 -0.595001,0.066002 -0.796997,0.198997c-0.201004,0.131004 -0.355003,0.305 -0.462997,0.518005c-0.106003,0.214996 -0.179001,0.460999 -0.216003,0.741997c-0.037003,0.278999 -0.056,0.566002 -0.056,0.862999s0.018997,0.585999 0.056,0.864998s0.109001,0.527 0.216003,0.740005c0.106995,0.214996 0.261993,0.386993 0.462997,0.519997c0.201996,0.131004 0.468002,0.196999 0.796997,0.196999c0.330002,0 0.596001,-0.065994 0.797005,-0.196999c0.200996,-0.133003 0.354996,-0.305 0.462997,-0.519997c0.107002,-0.213005 0.178001,-0.461006 0.210999,-0.740005c0.032005,-0.278999 0.049004,-0.568001 0.049004,-0.864998s-0.016998,-0.584 -0.049004,-0.862999z" fill="#C8152F"/>
    <g>
     <g>
      <path d="m48.255001,58.917c-0.993999,0 -1.348,-0.433998 -1.348,-1.460999l0.035999,-8.324001c0,-0.315998 -0.067001,-0.486 -0.419003,-0.486c-0.091999,0 -0.300999,0.025002 -0.619999,0.059002c-0.728001,0.084 -2.077,0.204998 -3.688999,0.253998l-0.070999,0.001999v1.041h0.073997c0.849003,0 1.414001,0.232002 1.414001,1.219002l-0.033001,2.423c0,4.015999 -1.608997,4.792999 -2.784,4.792999c-0.961998,0 -1.32,-0.995998 -1.32,-1.832001l0.046001,-7.472c0,-0.315998 -0.067001,-0.486 -0.417999,-0.486c-0.09,0 -0.303001,0.025002 -0.623001,0.059002c-0.727001,0.084 -1.921001,0.204998 -3.529999,0.253998l-0.073002,0.002003v1.040997h0.075001c0.851002,0 1.412998,0.232002 1.412998,1.219002l-0.044998,5.041c0,3.283001 1.697998,3.973 3.120998,3.973c2.124001,0 3.342003,-1.384998 4.005001,-2.125c0.182999,-0.209 0.368,-0.419998 0.435001,-0.419998c0.033001,0 0.132999,0 0.132999,0.155998v2.041c0,0.303001 0.204998,0.348 0.325001,0.348c0.092999,0 0.298,-0.025002 0.607998,-0.07c0.75,-0.102001 2.007999,-0.205002 3.289001,-0.205002h0.076v-1.041h-0.077l0,-0.002998z" fill="#C8152F"/>
      <path d="m70.233002,43.004002c-2.896004,0 -3.679001,4.062 -4.055,6.076h-2.335003l-0.213997,1.040997h2.390995l-0.154999,1.012001c-0.104996,0.68 -0.209,1.357002 -0.311996,2.043999l-0.177002,1.167004c-1.018997,6.717999 -1.533001,9.705002 -2.645,9.705002c-0.124001,0 -0.153999,-0.037003 -0.153999,-0.178005c0,-0.049 0.014,-0.106998 0.031002,-0.174c0.028999,-0.098 0.059998,-0.223 0.059998,-0.378998c0,-0.461002 -0.341,-0.785 -0.828999,-0.785c-0.73,0 -1.061001,0.527 -1.061001,1.017998c0,0.906002 0.66,1.538998 1.611,1.538998c1.698997,0 3.785004,-1.958996 5.662003,-14.967995h2.587997l0.183998,-1.041h-2.639l0.219002,-1.705002c0.325996,-2.335999 0.749001,-3.329998 1.417,-3.329998c0.268997,0 0.431999,0.136997 0.431999,0.358997c0,0.148003 -0.019997,0.224003 -0.042,0.301003c-0.023003,0.088997 -0.051003,0.181 -0.051003,0.364998c0,0.385002 0.240005,0.833 0.924004,0.833c0.825996,0 1.195,-0.635998 1.195,-1.266998c0,-1.038002 -0.744003,-1.632999 -2.044998,-1.632999" fill="#C8152F"/>
      <path d="m71.875999,57.472c-0.746002,0 -1.354996,0.609001 -1.354996,1.359001c0,0.745998 0.608994,1.356998 1.354996,1.356998c0.750999,0 1.361,-0.611 1.361,-1.356998c0,-0.749001 -0.610001,-1.359001 -1.361,-1.359001" fill="#C8152F"/>
     </g>
    </g>
    <path d="m31.233,78.230003h46.243998v-46.242002h-46.243998v46.242002l0,0zm49.031,2.788994h-51.818001v-51.818996h51.817001v51.818996l0.000999,0z" fill="#C8152F"/>
    <path d="m59.727001,52.848c0,1.862999 -0.892002,5.945 -3.540001,5.945c-1.478001,0 -2,-1.5 -2,-2.780998c0,-2.482002 1.18,-5.924 3.400002,-5.924c1.766998,0 2.139999,1.501999 2.139999,2.759998m-1.519001,-4.202c-2.080002,0 -3.205002,1.443001 -3.688999,2.133999c-0.027,-1.375999 -0.539001,-2.018997 -1.605,-2.018997c-1.727001,0 -2.735001,2.354 -3.279003,3.620998l-0.026997,0.061001l0.813999,0.460999l0.035999,-0.069c0.036999,-0.077 0.084,-0.188 0.146,-0.318001c0.353001,-0.783997 1.085999,-2.414997 1.848,-2.414997c0.416,0 0.479,0.511997 0.479,0.819c0,0.439999 -0.132999,1.135998 -0.363998,2.184998l-2.155003,9.242001c-0.312,1.371002 -0.461998,1.591999 -1.831997,1.591999h-0.061001l-0.186001,1.043003h5.785l0.240002,-1.043003h-0.091003c-1.787998,0 -2.084999,-0.02 -2.084999,-0.704998c0,-0.145 0.081001,-0.487999 0.144001,-0.765999l1.021999,-4.332001c0.556999,1.157997 1.234001,2.098 3.299,2.098c3.551003,0 5.441002,-3.996002 5.441002,-6.881001c-0.000999,-2.344002 -1.200001,-4.708 -3.880001,-4.708" fill="#C8152F"/>
   </g>
  </svg>
 </defs>
 <g>
  <title>Layer 1</title>
  <use x="0.47989" y="-0.798057" transform="matrix(5.205244023629792,0,0,5.205244023629792,-150.56631695511987,-147.83904434146697) " id="svg_2" xlink:href="#svg_1"/>
 </g>
</svg>